<svg width="655" height="654" viewBox="0 0 655 654" fill="none" xmlns="http://www.w3.org/2000/svg">
<path d="M0.5 654C181.097 654 327.5 507.597 327.5 327H0.5V654Z" fill="url(#paint0_linear_803_6936)"/>
<path d="M327.5 327C327.5 146.403 473.903 6.39947e-06 654.5 1.42936e-05L654.5 327L327.5 327Z" fill="url(#paint1_linear_803_6936)"/>
<path d="M327.5 327C146.903 327 0.500026 180.597 0.500057 0L327.5 5.71745e-05L327.5 327Z" fill="url(#paint2_linear_803_6936)"/>
<path d="M654.5 654C654.5 473.403 508.097 327 327.5 327L327.5 654L654.5 654Z" fill="url(#paint3_linear_803_6936)"/>
<defs>
<linearGradient id="paint0_linear_803_6936" x1="164" y1="654" x2="0.499998" y2="392" gradientUnits="userSpaceOnUse">
<stop stop-color="white" stop-opacity="0.07"/>
<stop offset="1" stop-color="white" stop-opacity="0"/>
</linearGradient>
<linearGradient id="paint1_linear_803_6936" x1="327.5" y1="163.5" x2="654.5" y2="163.5" gradientUnits="userSpaceOnUse">
<stop stop-color="white" stop-opacity="0.06"/>
<stop offset="1" stop-color="white" stop-opacity="0"/>
</linearGradient>
<linearGradient id="paint2_linear_803_6936" x1="164" y1="327" x2="164" y2="2.85872e-05" gradientUnits="userSpaceOnUse">
<stop stop-color="white" stop-opacity="0.06"/>
<stop offset="1" stop-color="white" stop-opacity="0"/>
</linearGradient>
<linearGradient id="paint3_linear_803_6936" x1="654.5" y1="490.5" x2="327.5" y2="490.5" gradientUnits="userSpaceOnUse">
<stop stop-color="white" stop-opacity="0.06"/>
<stop offset="1" stop-color="white" stop-opacity="0"/>
</linearGradient>
</defs>
</svg>
