<svg width="21" height="21" viewBox="0 0 21 21" fill="none" xmlns="http://www.w3.org/2000/svg">
<path d="M10.5 20.5C11.1522 20.5 11.6866 20.0204 11.7772 19.3416C12.6739 13.2964 13.4982 12.4548 19.3135 11.7942C19.9837 11.7127 20.5 11.1516 20.5 10.5C20.5 9.83935 19.9928 9.2964 19.3225 9.19684C13.5435 8.39141 12.8279 7.68553 11.7772 1.64937C11.6594 0.979677 11.1431 0.5 10.5 0.5C9.8388 0.5 9.31337 0.979677 9.20472 1.65837C8.32612 7.69462 7.50185 8.53624 1.69564 9.19684C1.00723 9.28739 0.5 9.83035 0.5 10.5C0.5 11.1516 0.989121 11.6946 1.67753 11.7942C7.46554 12.6177 8.17206 13.3145 9.20472 19.3507C9.34058 20.0294 9.86592 20.5 10.5 20.5Z" fill="white"/>
</svg>
