<svg width="20" height="21" viewBox="0 0 20 21" fill="none" xmlns="http://www.w3.org/2000/svg">
<path d="M10 20.5C10.6522 20.5 11.1866 20.0204 11.2772 19.3416C12.1739 13.2964 12.9982 12.4548 18.8135 11.7942C19.4837 11.7127 20 11.1516 20 10.5C20 9.83935 19.4928 9.2964 18.8225 9.19684C13.0435 8.39141 12.3279 7.68553 11.2772 1.64937C11.1594 0.979677 10.6431 0.5 10 0.5C9.3388 0.5 8.81337 0.979677 8.70472 1.65837C7.82612 7.69462 7.00185 8.53624 1.19564 9.19684C0.507231 9.28739 0 9.83035 0 10.5C0 11.1516 0.489121 11.6946 1.17753 11.7942C6.96554 12.6177 7.67206 13.3145 8.70472 19.3507C8.84058 20.0294 9.36592 20.5 10 20.5Z" fill="#171717"/>
</svg>
