<svg width="500" height="500" viewBox="0 0 500 500" fill="none" xmlns="http://www.w3.org/2000/svg">
<path d="M500 250C500 236.485 488.543 225.802 475.061 226.746L271.789 240.975L425.585 107.301C435.786 98.435 436.333 82.7801 426.777 73.2233C417.22 63.6665 401.565 64.2138 392.699 74.4146L259.025 228.211L273.254 24.939C274.198 11.4566 263.515 -5.2864e-06 250 -1.09278e-05C236.485 -1.15186e-05 225.802 11.4566 226.746 24.939L240.975 228.211L107.301 74.4146C98.435 64.2138 82.7801 63.6665 73.2233 73.2233C63.6665 82.7801 64.2138 98.435 74.4146 107.301L228.211 240.975L24.939 226.746C11.4566 225.802 -1.03371e-05 236.485 -1.09278e-05 250C-1.15186e-05 263.515 11.4566 274.198 24.939 273.254L228.211 259.025L74.4145 392.699C64.2137 401.565 63.6665 417.22 73.2233 426.777C82.7801 436.333 98.4349 435.786 107.301 425.585L240.975 271.789L226.746 475.061C225.802 488.543 236.485 500 250 500C263.515 500 274.198 488.543 273.254 475.061L259.025 271.789L392.699 425.585C401.565 435.786 417.22 436.334 426.777 426.777C436.333 417.22 435.786 401.565 425.585 392.699L271.789 259.025L475.061 273.254C488.543 274.198 500 263.515 500 250Z" fill="white"/>
</svg>
